<svg id="Capa_1" data-name="Capa 1" xmlns="http://www.w3.org/2000/svg" xmlns:xlink="http://www.w3.org/1999/xlink" viewBox="0 0 388.29 320.14"><defs><style>.cls-1{fill:url(#Degradado_sin_nombre_27);}</style><linearGradient id="Degradado_sin_nombre_27" x1="20.11" y1="167.66" x2="368.18" y2="167.66" gradientUnits="userSpaceOnUse"><stop offset="0.49" stop-color="#e2ac00"/><stop offset="0.5" stop-color="#5a3c90"/><stop offset="0.64" stop-color="#5a3c90"/><stop offset="0.76" stop-color="#5a3c90"/></linearGradient></defs><title>UN Logo</title><path class="cls-1" d="M349.63,101.3q-18.56-18.09-49-18.09a77.8,77.8,0,0,0-28.95,5.27c-8.85,3.52-26.78,20.44-33.22,27.08l-44.3-29.64h-57.3v79q0,19.31-8.9,29t-23.68,9.65q-26.83,0-26.84-33.48V85.92H20.11v93.5q0,36.5,18.55,54.59t49,18.1a77.65,77.65,0,0,0,29-5.28c8.85-3.52,26.78-20.44,33.21-27.07l44.3,29.64h57.31v-79q0-19.29,8.9-29T284,131.77q26.84,0,26.84,33.47V249.4h57.31V155.9Q368.18,119.4,349.63,101.3Z"/></svg>