<svg id="Capa_1" data-name="Capa 1" xmlns="http://www.w3.org/2000/svg" viewBox="0 0 572.13 320.76"><defs><style>.cls-1{fill:#fff;}</style></defs><title>UN Logo</title><path class="cls-1" d="M226.86,36.1a13.51,13.51,0,0,1-4.64-10.43,13.52,13.52,0,0,1,4.64-10.44Q231.49,11,239,11t12.17,4a12.89,12.89,0,0,1,4.64,10.22A14.07,14.07,0,0,1,251.21,36q-4.64,4.28-12.17,4.28T226.86,36.1ZM225.27,49h27.54v78.57H225.27Z"/><path class="cls-1" d="M357,19.72V127.28H338.35l-7.57-7.83q-7.68,9.14-23,9.13a39,39,0,0,1-19.57-5,36.08,36.08,0,0,1-14-14.28A43.47,43.47,0,0,1,269,87.85a43.09,43.09,0,0,1,5.15-21.38,35.68,35.68,0,0,1,14-14.13,39.43,39.43,0,0,1,19.57-4.93q14.06,0,21.74,8.12V19.72Zm-31.74,82q4.64-5,4.63-13.84t-4.56-13.62a15.37,15.37,0,0,0-11.82-4.93,15.57,15.57,0,0,0-11.88,4.93Q297,79.15,297,87.85q0,8.85,4.64,13.84a16.46,16.46,0,0,0,23.63,0Z"/><path class="cls-1" d="M551.82,19.72V127.28H533.07l-7.49-7.83q-7.68,9.14-23.05,9.13a39,39,0,0,1-19.57-5,36.14,36.14,0,0,1-14-14.28,43.47,43.47,0,0,1-5.14-21.45A43.09,43.09,0,0,1,469,66.47a35.75,35.75,0,0,1,14-14.13,39.46,39.46,0,0,1,19.57-4.93q14.06,0,21.74,8.12V19.72Zm-31.75,82q4.63-5,4.64-13.84t-4.57-13.62a15.35,15.35,0,0,0-11.81-4.93,15.59,15.59,0,0,0-11.89,4.93q-4.63,4.92-4.64,13.62,0,8.85,4.64,13.84a15.47,15.47,0,0,0,11.89,5A15.3,15.3,0,0,0,520.07,101.69Z"/><path class="cls-1" d="M16.36,193.67H43.9V301.22H16.36Z"/><path class="cls-1" d="M63.32,209.76a14.06,14.06,0,0,1,0-20.88q4.63-4.2,12.18-4.2t12.17,4a12.82,12.82,0,0,1,4.64,10.21,14,14,0,0,1-4.64,10.8Q83,214,75.5,214T63.32,209.76Zm-1.59,12.9H89.27v78.56H61.73Z"/><path class="cls-1" d="M123.91,297.31a39.4,39.4,0,0,1,0-70.81,51.48,51.48,0,0,1,23.34-5.15q13.33,0,23.05,5.73A31.76,31.76,0,0,1,184.07,243l-21.31,10.87q-5.37-10.57-15.66-10.58a16.44,16.44,0,0,0-12.24,4.93Q130,253.11,130,261.79q0,8.85,4.86,13.85a16.35,16.35,0,0,0,12.24,5q10.29,0,15.66-10.58l21.31,10.87A31.76,31.76,0,0,1,170.3,296.8q-9.72,5.73-23.05,5.73A50.87,50.87,0,0,1,123.91,297.31Z"/><path class="cls-1" d="M273.5,268.9H216.39a16,16,0,0,0,6.74,9.35,22.55,22.55,0,0,0,12.54,3.26,27,27,0,0,0,9.79-1.6,28.89,28.89,0,0,0,8.33-5.21l14.5,15.07q-11.46,12.75-33.49,12.76-13.77,0-24.21-5.22a39.67,39.67,0,0,1-.87-70.74,49.45,49.45,0,0,1,43.49-.36,36.93,36.93,0,0,1,15.15,14.06q5.58,9.21,5.58,21.81Q273.94,262.38,273.5,268.9Zm-52.11-24.35A16.32,16.32,0,0,0,216,254.4h32.18a16.39,16.39,0,0,0-5.44-9.85,17.45,17.45,0,0,0-21.31,0Z"/><path class="cls-1" d="M79.21,113c-3.09,3.19-11.71,11.32-16,13a37.34,37.34,0,0,1-13.92,2.53q-14.62,0-23.55-8.69T16.87,93.65V48.71H44.41V89.16q0,16.08,12.9,16.09a14.75,14.75,0,0,0,11.38-4.64Q73,96,73,86.69v-38H100.5v78.57Z"/><path class="cls-1" d="M137.05,63.61c3.09-3.19,11.71-11.32,16-13a37.33,37.33,0,0,1,13.91-2.54q14.64,0,23.56,8.7T199.4,83v44.94H171.86V87.49q0-16.09-12.9-16.09A14.74,14.74,0,0,0,147.58,76Q143.3,80.67,143.3,90v38H115.76V49.37Z"/><path class="cls-1" d="M454.91,230.7q8.93,8.7,8.92,26.24v44.93H436.29V261.43q0-16.1-12.9-16.09A14.74,14.74,0,0,0,412,250q-4.27,4.64-4.28,13.92v38H380.19V223.31h26.24v8.55a31.16,31.16,0,0,1,11-7.32A37.34,37.34,0,0,1,431.36,222Q446,222,454.91,230.7Z"/><path class="cls-1" d="M346,219.54v8.29a42.4,42.4,0,1,0,0,68.22l5,8.29h13.64v-84.8Zm-24.41,62.73a20.33,20.33,0,1,1,20.33-20.33A20.33,20.33,0,0,1,321.59,282.27Z"/><path class="cls-1" d="M537.15,221.56v8.29a42.4,42.4,0,1,0,0,68.23l4.55,8.28h14.07v-84.8Zm-24.41,62.73A20.33,20.33,0,1,1,533.07,264,20.33,20.33,0,0,1,512.74,284.29Z"/><path class="cls-1" d="M437,43.78v8.29a42.4,42.4,0,1,0,0,68.22v8.29h18.62V43.78Zm-24.41,62.73a20.33,20.33,0,1,1,20.33-20.33A20.33,20.33,0,0,1,412.61,106.51Z"/></svg>