<svg id="Capa_1" data-name="Capa 1" xmlns="http://www.w3.org/2000/svg" viewBox="0 0 572.13 320.14"><defs><style>.cls-1{fill:#5a3c90;}.cls-2{fill:#e2ac00;}</style></defs><title>UN Logo</title><path class="cls-1" d="M228.16,39.85a13.54,13.54,0,0,1-4.63-10.44A13.53,13.53,0,0,1,228.16,19q4.65-4.2,12.18-4.2t12.18,4A12.89,12.89,0,0,1,257.16,29a14.07,14.07,0,0,1-4.64,10.8q-4.65,4.27-12.18,4.28T228.16,39.85Zm-1.59,12.9h27.54v78.56H226.57Z"/><path class="cls-1" d="M358.32,23.47V131H339.66l-7.57-7.83q-7.69,9.13-23,9.13a39,39,0,0,1-19.57-5,36.18,36.18,0,0,1-14-14.27,43.54,43.54,0,0,1-5.14-21.46,43.12,43.12,0,0,1,5.14-21.38,35.88,35.88,0,0,1,14-14.13A39.59,39.59,0,0,1,309,51.15q14.06,0,21.74,8.12V23.47Zm-31.74,82q4.64-5,4.64-13.85T326.65,78A15.35,15.35,0,0,0,314.84,73,15.59,15.59,0,0,0,303,78q-4.63,4.92-4.64,13.62T303,105.44a15.51,15.51,0,0,0,11.89,5A15.34,15.34,0,0,0,326.58,105.44Z"/><path class="cls-1" d="M553.12,23.47V131H534.37l-7.49-7.83q-7.68,9.13-23.05,9.13a39,39,0,0,1-19.56-5,36.11,36.11,0,0,1-14-14.27,43.54,43.54,0,0,1-5.15-21.46,43.12,43.12,0,0,1,5.15-21.38,35.81,35.81,0,0,1,14-14.13,39.53,39.53,0,0,1,19.56-4.93q14.07,0,21.75,8.12V23.47Zm-31.75,82q4.65-5,4.64-13.85T521.45,78A15.38,15.38,0,0,0,509.63,73,15.57,15.57,0,0,0,497.75,78q-4.65,4.92-4.64,13.62t4.64,13.85a15.49,15.49,0,0,0,11.88,5A15.32,15.32,0,0,0,521.37,105.44Z"/><path class="cls-1" d="M17.66,197.41H45.21V305H17.66Z"/><path class="cls-1" d="M64.63,213.5a14.05,14.05,0,0,1,0-20.87q4.64-4.22,12.17-4.21t12.18,4a12.87,12.87,0,0,1,4.64,10.22A14.07,14.07,0,0,1,89,213.43q-4.64,4.27-12.18,4.27T64.63,213.5ZM63,226.4H90.57V305H63Z"/><path class="cls-1" d="M125.22,301.05a39.4,39.4,0,0,1,0-70.81,51.47,51.47,0,0,1,23.33-5.15q13.33,0,23,5.73a31.76,31.76,0,0,1,13.77,15.87l-21.31,10.87Q158.71,247,148.41,247a16.5,16.5,0,0,0-12.25,4.93q-4.86,4.93-4.86,13.63t4.86,13.84a16.37,16.37,0,0,0,12.25,5q10.29,0,15.65-10.58l21.31,10.87a31.68,31.68,0,0,1-13.77,15.87q-9.71,5.73-23,5.73A50.85,50.85,0,0,1,125.22,301.05Z"/><path class="cls-1" d="M274.81,272.64H217.7a16,16,0,0,0,6.74,9.35q5,3.25,12.53,3.26a27.22,27.22,0,0,0,9.79-1.59,29.16,29.16,0,0,0,8.33-5.22l14.5,15.07q-11.46,12.76-33.48,12.76-13.79,0-24.21-5.22A38.46,38.46,0,0,1,190,265.54a38.8,38.8,0,0,1,21-35.23,49.42,49.42,0,0,1,43.48-.36A37,37,0,0,1,269.66,244q5.58,9.21,5.58,21.82Q275.24,266.12,274.81,272.64ZM222.7,248.29a16.34,16.34,0,0,0-5.44,9.85h32.18a16.38,16.38,0,0,0-5.43-9.85,17.45,17.45,0,0,0-21.31,0Z"/><path class="cls-2" d="M80.52,116.78c-3.09,3.19-11.71,11.32-16,13a37.41,37.41,0,0,1-13.92,2.53q-14.64,0-23.56-8.69T18.17,97.39V52.46H45.71V92.9q0,16.08,12.9,16.09A14.74,14.74,0,0,0,70,104.35q4.28-4.63,4.28-13.92v-38h27.54V131Z"/><path class="cls-2" d="M138.36,67.35c3.09-3.19,11.71-11.32,16-13a37.34,37.34,0,0,1,13.92-2.54q14.63,0,23.55,8.7t8.91,26.24v44.93H173.16V91.23q0-16.1-12.9-16.09a14.72,14.72,0,0,0-11.37,4.64q-4.29,4.64-4.28,13.91v38H117.07V53.11Z"/><path class="cls-1" d="M456.22,234.44q8.91,8.7,8.91,26.24v44.94H437.59V265.17q0-16.08-12.9-16.09a14.75,14.75,0,0,0-11.38,4.64Q409,258.37,409,267.64v38H381.49V227.05h26.24v8.55a31.24,31.24,0,0,1,11-7.32,37.32,37.32,0,0,1,13.91-2.53Q447.3,225.75,456.22,234.44Z"/><path class="cls-1" d="M347.3,223.28v8.29a42.4,42.4,0,1,0,0,68.22l5,8.29h13.64v-84.8ZM322.89,286a20.33,20.33,0,1,1,20.33-20.33A20.33,20.33,0,0,1,322.89,286Z"/><path class="cls-1" d="M538.46,225.31v8.28a42.41,42.41,0,1,0,0,68.23l4.54,8.29h14.08v-84.8ZM514,288a20.33,20.33,0,1,1,20.33-20.32A20.32,20.32,0,0,1,514,288Z"/><path class="cls-1" d="M438.33,47.52v8.29a42.4,42.4,0,1,0,0,68.23v8.28H457V47.52Zm-24.41,62.73a20.33,20.33,0,1,1,20.32-20.33A20.33,20.33,0,0,1,413.92,110.25Z"/></svg>