<svg id="Capa_1" data-name="Capa 1" xmlns="http://www.w3.org/2000/svg" viewBox="0 0 388.29 320.76"><defs><style>.cls-1{fill:#fff;}</style></defs><title>UN Logo</title><path class="cls-1" d="M191.64,78.64h-54.8v79q0,19.29-8.9,29t-23.68,9.65q-26.83,0-26.84-33.48V78.64H20.11v93.5q0,36.5,18.55,54.6t49,18.09a77.85,77.85,0,0,0,29-5.27c8.85-3.53,26.78-20.44,33.21-27.08l41.8,28Z"/><path class="cls-1" d="M349.63,94q-18.56-18.11-49-18.1a77.6,77.6,0,0,0-28.95,5.28c-8.85,3.52-26.78,20.44-33.22,27.07l-41.8-28V242.12h54.81v-79q0-19.31,8.9-29T284,124.49q26.84,0,26.84,33.48v84.15h57.31v-93.5Q368.18,112.13,349.63,94Z"/></svg>